<svg version="1" xmlns="http://www.w3.org/2000/svg" width="578.667" height="578.667" viewBox="0 0 434 434"><path d="M207.3 39.1c-5.3 1-.8-1-74.7 33.4-57.2 26.7-62.4 29.3-67.7 34.3-6.8 6.3-11.4 14.8-12.9 23.7-1.3 8.2-1.3 153.5 0 160.5 1.6 8.5 5.4 15.6 11.7 21.8 5 4.9 15 10.9 69.1 41.6 34.9 19.8 66.2 37 69.5 38.4 8.7 3.6 20.7 3.6 29.3.1 3.4-1.4 34.9-18.9 70-39 54.6-31 64.7-37.2 69.7-42.1 6.3-6.2 10.1-13.3 11.7-21.8 1.3-7.1 1.4-148.8 0-156.1-2.5-13.3-11.6-25-24.3-31.2-22.6-11-122-58.2-126.2-59.9-11.2-4.6-16.8-5.4-25.2-3.7zm18 6.3c4 1.3 32.9 14.7 64.2 29.6 31.4 15 60.8 29 65.4 31.2 10.2 4.9 16.2 10.7 20.5 19.8l3.1 6.5v159l-3.2 6.5c-1.8 3.6-5.1 8.4-7.5 10.7-2.9 2.8-24.4 15.7-66.8 39.9-34.4 19.6-65.4 37.1-69 38.8-5.5 2.6-7.7 3.1-14.5 3.1-5.5 0-9.5-.6-12.9-1.9-2.7-1-33.7-18.3-69-38.3-44.3-25.2-65.4-37.7-68.4-40.6-2.4-2.3-5.7-7.1-7.5-10.7l-3.2-6.5v-164l3.1-6.5c3.7-7.8 9.9-14.2 17.4-18 12.6-6.3 124.8-58.4 128.5-59.6 6.1-1.9 11.9-1.6 19.8 1z"/><path d="m140.5 107.5-49 28.3-.3 73.9c-.2 69.5-.1 74.1 1.5 75.5C96.3 288.3 215.1 355 217 355c1.9 0 121.6-67.7 125.3-70.8 1.6-1.4 1.7-5.9 1.5-73.1l-.3-71.6-10.5-4.2c-5.8-2.4-11.5-4.3-12.8-4.3-1.9 0-98.5 50.4-101.9 53.2-1.5 1.2-1.8 25.4-.5 27.5.9 1.4 21.6 11.3 23.7 11.3.7 0 12.2-5.6 25.6-12.5 13.3-6.9 24.5-12.3 24.8-11.9.3.3.7 12.8.9 27.7l.2 27.2-37.1 21.5c-20.5 11.8-38 21.5-38.9 21.5-.9 0-17.9-9.9-37.8-22l-36.1-22v-45l-.1-45 34.4-18.8c18.8-10.3 35.2-19.5 36.4-20.3 2.1-1.4 2.2-2.3 2.2-14.4V96.2l-12-8.6c-6.7-4.7-12.6-8.6-13.3-8.5-.7 0-23.2 12.8-50.2 28.4z"/></svg>